<svg xmlns="http://www.w3.org/2000/svg" xmlns:xlink="http://www.w3.org/1999/xlink" version="1.1" x="0px" y="0px" viewBox="0 0 100 125" fill="#16b0c7" xml:space="preserve"><path d="M68.8,66.6c-0.1-0.1-0.3-0.1-0.5-0.1c-0.6,0-1.2,0.3-1.5,0.9c-1.9,4.6-7.5,8.4-14.3,9.6c-6.8,1.2-13.4-0.4-16.7-4.1  c-0.6-0.6-1.5-0.7-2.1-0.1c-0.6,0.6-0.7,1.5-0.1,2.1c3.2,3.5,8.6,5.5,14.6,5.5c1.6,0,3.2-0.1,4.9-0.4c7.8-1.4,14.3-5.9,16.6-11.4  c0.1-0.2,0.1-0.3,0.1-0.5C69.7,67.4,69.4,66.8,68.8,66.6z"/><path d="M85.1,57.3c0-0.2-0.1-0.3-0.1-0.5c-0.1-0.3-0.1-0.6-0.2-0.8c-0.1-0.2-0.2-0.4-0.2-0.7c-0.1-0.2-0.2-0.4-0.2-0.6  c-0.1-0.2-0.2-0.5-0.4-0.7c0-0.1-0.1-0.1-0.1-0.2c0-4.2,0-24.3,0-24.5c-0.2-5.6-4.6-10-10.1-10.4l-25.5-4.5l0-4.1  c0-1-0.8-1.8-1.8-1.8c-3.4,0-6.5,0.8-9.3,2.3l0-3.9c0-1-0.8-1.8-1.8-1.8C24.6,5.1,16,13.4,15.7,24c0,0.2,0,21.8,0,22  c0,2.2,0.4,4.2,1,6.2c0,0,0,0,0,0c-0.1,0.1-0.2,0.2-0.3,0.3c0,0,0,0,0.1,0c-1.3,1.6-2.2,3.7-2.2,5.9c0,1.1,0.2,2.2,0.6,3.2  c0,0,0,0,0,0c0.1,0.3,0.3,0.7,0.4,1c0.1,0.2,0.2,0.4,0.3,0.5c0.1,0.2,0.2,0.4,0.3,0.5c0.1,0.2,0.2,0.4,0.4,0.5  c0.2,0.3,0.5,0.5,0.7,0.8c0.2,0.2,0.3,0.3,0.5,0.4c0.1,0.1,0.3,0.3,0.5,0.4c0.2,0.1,0.4,0.3,0.6,0.4c0.2,0.1,0.4,0.2,0.5,0.3  c0.3,0.2,0.7,0.3,1,0.5c0.1,0,0.2,0.1,0.3,0.1c0.1,0,0.2,0.1,0.3,0.1c0.1,0,0.2,0.1,0.3,0.1c0.6,15.3,13.3,27.6,28.8,27.6  c15.4,0,28-12.1,28.8-27.3c3.9-1.1,6.7-4.7,6.7-8.9C85.2,58.2,85.1,57.7,85.1,57.3z M20.9,57.5v5v0.8c-1.3-0.7-2.3-1.9-2.7-3.3  c-0.2-0.5-0.3-1.1-0.3-1.7c0-0.2,0-0.3,0-0.5c0-0.1,0-0.1,0-0.2c0-0.3,0.1-0.6,0.2-0.9c0,0,0,0,0,0c0.1-0.3,0.2-0.6,0.4-0.9  c0.1-0.1,0.1-0.3,0.2-0.4c0.1-0.2,0.2-0.3,0.3-0.5c0.1-0.1,0.2-0.3,0.3-0.4c0.1-0.1,0.2-0.2,0.3-0.3c0.1-0.1,0.3-0.3,0.4-0.4  c0.1-0.1,0.2-0.1,0.3-0.2c0.2-0.1,0.3-0.2,0.5-0.3V57.5z M74.9,64.3C74.9,64.3,74.9,64.3,74.9,64.3L74.9,64.3v1.8c0,0.4,0,0.8,0,1.1  c0,0.2,0,0.5,0,0.7c0,0.6-0.1,1.2-0.2,1.8c-1.2,8.1-6.3,15-13.3,18.7c-3.5,1.8-7.4,2.8-11.6,2.8c-4.2,0-8.1-1-11.6-2.9  c-6.6-3.5-11.5-9.8-13-17.4c0-0.2-0.1-0.5-0.2-0.7c0-0.1,0-0.2-0.1-0.4c-0.1-0.8-0.2-1.6-0.3-2.4c0-0.5-0.1-1-0.1-1.5v-0.3V64v-1.7  v-4.5v-3.9h2.5h0.4c0,0.1,0,0.2,0,0.3c0.1,1.7,0.8,3.3,1.8,4.4c0.9,1,2.1,1.6,3.4,1.6c0.1,0,0.2,0,0.3,0h8.5c3.1,0,5.5-2.9,5.6-6.4  h5.4c0,3.5,2.5,6.4,5.6,6.4h8.5c0.1,0,0.2,0,0.2,0c1.3-0.1,2.5-0.7,3.5-1.6c1-1,1.6-2.4,1.8-4c0-0.2,0.1-0.5,0.1-0.7h0.9h2.1V64.3z   M37.6,56.7c0.8,0.3,1.6,0,2-0.8c0.4-0.9,1.2-1.4,2.2-1.4c0.8,0,1.5,0.4,2,1.1c-0.5,1-1.3,1.6-2.2,1.6H33c-0.1,0-0.1,0-0.2,0  c-1.3-0.1-2.4-1.6-2.4-3.4c0,0,0,0,0,0c0-0.5,0.1-1,0.3-1.5c0.2-0.6,0.6-1.2,1.1-1.5c0.4-0.2,0.7-0.4,1.2-0.4h8.5  c0.4,0,0.8,0.2,1.2,0.4c0.3,0.2,0.6,0.6,0.9,1c-0.6-0.2-1.2-0.3-1.8-0.3c-1.8,0-3.4,0.9-4.4,2.4c-0.2,0.3-0.4,0.6-0.5,0.9  C36.5,55.5,36.8,56.4,37.6,56.7z M62.7,54.7c-0.1-0.3-0.3-0.5-0.5-0.8c-1-1.3-2.6-2.1-4.2-2.1c-0.7,0-1.4,0.2-2.1,0.4  c0.2-0.5,0.6-1,1-1.3c0.4-0.2,0.7-0.4,1.2-0.4h8.5c0.4,0,0.8,0.2,1.2,0.4c0.5,0.4,1,1,1.2,1.8C69,53,69,53.4,69,53.9c0,0,0,0,0,0  c0,1.7-1,3.2-2.3,3.4c-0.1,0-0.1,0-0.2,0H58c-0.8,0-1.6-0.6-2.1-1.4c0.4-0.7,1.2-1.1,2-1.1c0.9,0,1.7,0.5,2.1,1.3  c0.3,0.5,0.8,0.8,1.3,0.8c0.2,0,0.5-0.1,0.7-0.2C62.7,56.3,63,55.4,62.7,54.7z M74.9,49.5v1.4h-3.6c0-0.1-0.1-0.2-0.1-0.2  c-0.4-0.8-0.9-1.5-1.6-2c-0.9-0.7-2-1.2-3.2-1.2H58c-2.1,0-3.9,1.4-4.9,3.4h-6.8c-0.9-2-2.8-3.4-4.9-3.4H33c-1.9,0-3.7,1.2-4.6,2.9  c-0.1,0.2-0.2,0.3-0.2,0.5h-3.6v-1.7v-0.5c0-0.2,0-0.5,0-0.7v-7.4v-0.8c0-1.8,1.7-3.3,3.5-3l0.1,0c14.2,3.1,29,3.1,43.2,0  c0.2,0,0.4-0.1,0.6-0.1c1.7,0,3,1.3,3,3V49.5z M71.9,33.2c-0.4,0-0.9,0-1.4,0.1c-13.6,3-27.9,3-41.5,0l-0.2,0  c-0.4-0.1-0.9-0.1-1.3-0.1c-3.6,0-6.6,3-6.6,6.6v8c0,0,0,0,0,0c-0.1,0.3-0.1,0.5,0,0.8v0.8c-0.4,0.1-0.8,0.3-1.1,0.4  c-0.3-1.2-0.5-2.6-0.5-3.9c0-1.1,0-21.4,0-21.9c0.2-8,6.3-14.4,14.1-15.3l0,4.5v0V14c0,0.2,0.1,0.4,0.1,0.6c0.1,0.3,0.3,0.5,0.5,0.7  c0.1,0,0.1,0.1,0.2,0.1c0,0,0.1,0.1,0.1,0.1c0.1,0,0.1,0.1,0.2,0.1c0.1,0.1,0.2,0.1,0.4,0.1l0.4,0.1c0.1,0,0.1,0,0.2,0  c0.4,0,0.7-0.1,1-0.3c0.2-0.1,0.4-0.2,0.5-0.4c0.3-0.2,0.7-0.5,1-0.7c0.9-0.5,1.8-1,2.8-1.3c1.2-0.4,2.5-0.8,3.8-0.9l0,1.6v1.8v0.2  l0,0.5v0c0.1,0.6,0.5,1.1,1.2,1.3c0,0,0,0,0.1,0c0.1,0,0.2,0,0.3,0.1l1.2,0.2l5.3,0.9l20.5,3.6c0.1,0,0.1,0,0.2,0  c3.8,0.2,6.7,3.2,6.9,6.9c0,0.4,0,14,0,21.1c-0.1-0.1-0.3-0.1-0.5-0.2c-0.2-0.1-0.4-0.2-0.7-0.3c-0.1,0-0.2-0.1-0.3-0.1  c0,0,0,0-0.1,0c0,0-0.1,0-0.1,0v-10C78.5,36.1,75.6,33.2,71.9,33.2z M78.5,63.7v-4.5v-5.5c0.3,0.2,0.6,0.3,0.8,0.5  c0,0,0.1,0,0.1,0.1c0.2,0.2,0.5,0.4,0.7,0.6c0,0,0,0,0,0c0.4,0.5,0.8,1,1,1.7c0,0,0,0.1,0.1,0.1c0.1,0.2,0.2,0.5,0.2,0.7  c0,0.1,0,0.2,0.1,0.3c0,0.3,0.1,0.5,0.1,0.8c0,0,0,0.1,0,0.1C81.6,60.9,80.3,62.7,78.5,63.7z"/></svg>